<svg width="669" height="217" viewBox="0 0 669 217" fill="none" xmlns="http://www.w3.org/2000/svg">
<g filter="url(#filter0_d)">
<path d="M249.227 52.625L268.562 126.664L287.828 52.625H314.828V155H294.086V127.297L295.984 84.6172L275.523 155H261.461L241 84.6172L242.898 127.297V155H222.227V52.625H249.227ZM328.188 114.5C328.188 102.969 330.906 93.9219 336.344 87.3594C341.781 80.7969 349.305 77.5156 358.914 77.5156C368.617 77.5156 376.188 80.7969 381.625 87.3594C387.062 93.9219 389.781 103.016 389.781 114.641V119.492C389.781 131.07 387.086 140.117 381.695 146.633C376.305 153.148 368.758 156.406 359.055 156.406C349.305 156.406 341.711 153.148 336.273 146.633C330.883 140.07 328.188 130.977 328.188 119.352V114.5ZM348.156 119.492C348.156 133.086 351.789 139.883 359.055 139.883C365.758 139.883 369.367 134.211 369.883 122.867L369.953 114.5C369.953 107.562 368.992 102.43 367.07 99.1016C365.148 95.7266 362.43 94.0391 358.914 94.0391C355.539 94.0391 352.891 95.7266 350.969 99.1016C349.094 102.43 348.156 107.562 348.156 114.5V119.492ZM426.062 126.875L435.695 78.9219H456.438L435.555 155H416.57L395.617 78.9219H416.43L426.062 126.875ZM495.531 156.406C485.312 156.406 477.344 153.359 471.625 147.266C465.906 141.172 463.047 132.453 463.047 121.109V115.062C463.047 103.062 465.672 93.8047 470.922 87.2891C476.172 80.7734 483.695 77.5156 493.492 77.5156C503.055 77.5156 510.25 80.5859 515.078 86.7266C519.906 92.8203 522.367 101.867 522.461 113.867V123.641H482.875C483.156 129.266 484.398 133.391 486.602 136.016C488.805 138.594 492.203 139.883 496.797 139.883C503.453 139.883 509.008 137.609 513.461 133.062L521.266 145.086C518.828 148.461 515.289 151.203 510.648 153.312C506.008 155.375 500.969 156.406 495.531 156.406ZM483.016 109.719H502.914V107.891C502.82 103.344 502.07 99.8984 500.664 97.5547C499.258 95.2109 496.82 94.0391 493.352 94.0391C489.883 94.0391 487.352 95.2812 485.758 97.7656C484.211 100.25 483.297 104.234 483.016 109.719ZM596.5 155H576.531V78.9219H596.5V155ZM575.617 59.2344C575.617 56.1406 576.602 53.6094 578.57 51.6406C580.539 49.6719 583.164 48.6875 586.445 48.6875C589.727 48.6875 592.352 49.6719 594.32 51.6406C596.289 53.6094 597.273 56.1406 597.273 59.2344C597.273 62.2812 596.289 64.8125 594.32 66.8281C592.398 68.8438 589.773 69.8516 586.445 69.8516C583.117 69.8516 580.469 68.8438 578.5 66.8281C576.578 64.8125 575.617 62.2812 575.617 59.2344ZM635.031 60.2188V78.9219H645.227V93.8984H635.031V131.656C635.031 134.656 635.43 136.719 636.227 137.844C637.07 138.969 638.664 139.531 641.008 139.531C642.93 139.531 644.5 139.367 645.719 139.039L645.578 154.508C642.203 155.773 638.547 156.406 634.609 156.406C621.766 156.406 615.273 149.047 615.133 134.328V93.8984H606.344V78.9219H615.133V60.2188H635.031Z" fill="#5965E0"/>
<path d="M535.328 144.875C535.328 141.688 536.383 139.062 538.492 137C540.648 134.938 543.438 133.906 546.859 133.906C550.188 133.906 552.953 134.938 555.156 137C557.359 139.016 558.461 141.641 558.461 144.875C558.461 148.156 557.336 150.805 555.086 152.82C552.883 154.789 550.141 155.773 546.859 155.773C543.531 155.773 540.766 154.766 538.562 152.75C536.406 150.734 535.328 148.109 535.328 144.875Z" fill="#5965E0"/>
<path d="M535.328 144.875C535.328 141.688 536.383 139.062 538.492 137C540.648 134.938 543.438 133.906 546.859 133.906C550.188 133.906 552.953 134.938 555.156 137C557.359 139.016 558.461 141.641 558.461 144.875C558.461 148.156 557.336 150.805 555.086 152.82C552.883 154.789 550.141 155.773 546.859 155.773C543.531 155.773 540.766 154.766 538.562 152.75C536.406 150.734 535.328 148.109 535.328 144.875Z" fill="#00FD47"/>
</g>
<g filter="url(#filter1_d)">
<rect x="-6" width="214" height="209" rx="104.5" fill="#5965E0"/>
<path d="M94.2814 45.7188H124.732L99.3999 163.281H68.9489L94.2814 45.7188Z" fill="white"/>
<path d="M138.494 45.7188H168.772L149.146 137.475H118.861L138.494 45.7188Z" fill="white"/>
<path d="M50.4142 45.7188H80.6928L61.067 137.475H30.7812L50.4142 45.7188Z" fill="white"/>
</g>
<defs>
<filter id="filter0_d" x="218.227" y="48.6875" width="431.492" height="115.719" filterUnits="userSpaceOnUse" color-interpolation-filters="sRGB">
<feFlood flood-opacity="0" result="BackgroundImageFix"/>
<feColorMatrix in="SourceAlpha" type="matrix" values="0 0 0 0 0 0 0 0 0 0 0 0 0 0 0 0 0 0 127 0"/>
<feOffset dy="4"/>
<feGaussianBlur stdDeviation="2"/>
<feColorMatrix type="matrix" values="0 0 0 0 0 0 0 0 0 0 0 0 0 0 0 0 0 0 0.25 0"/>
<feBlend mode="normal" in2="BackgroundImageFix" result="effect1_dropShadow"/>
<feBlend mode="normal" in="SourceGraphic" in2="effect1_dropShadow" result="shape"/>
</filter>
<filter id="filter1_d" x="-10" y="0" width="222" height="217" filterUnits="userSpaceOnUse" color-interpolation-filters="sRGB">
<feFlood flood-opacity="0" result="BackgroundImageFix"/>
<feColorMatrix in="SourceAlpha" type="matrix" values="0 0 0 0 0 0 0 0 0 0 0 0 0 0 0 0 0 0 127 0"/>
<feOffset dy="4"/>
<feGaussianBlur stdDeviation="2"/>
<feColorMatrix type="matrix" values="0 0 0 0 0 0 0 0 0 0 0 0 0 0 0 0 0 0 0.25 0"/>
<feBlend mode="normal" in2="BackgroundImageFix" result="effect1_dropShadow"/>
<feBlend mode="normal" in="SourceGraphic" in2="effect1_dropShadow" result="shape"/>
</filter>
</defs>
</svg>
